<svg width="23" height="25" viewBox="0 0 23 25" fill="none" xmlns="http://www.w3.org/2000/svg">
<path d="M16.8919 6.3338C17.1774 6.04434 17.5574 5.88432 17.9515 5.8875C18.3457 5.89067 18.7233 6.0568 19.0047 6.35082C19.2861 6.64485 19.4492 7.04377 19.4596 7.46341C19.47 7.88305 19.3269 8.2906 19.0606 8.60004L10.9738 19.3701C10.8347 19.5296 10.6669 19.6576 10.4803 19.7464C10.2937 19.8353 10.0923 19.8831 9.88793 19.8872C9.68359 19.8912 9.48058 19.8513 9.29105 19.7699C9.10152 19.6885 8.92936 19.5672 8.78486 19.4133L3.42204 13.7023C3.27269 13.5541 3.15291 13.3754 3.06983 13.1769C2.98674 12.9783 2.94207 12.7639 2.93847 12.5466C2.93487 12.3292 2.97241 12.1133 3.04887 11.9118C3.12532 11.7102 3.23911 11.5271 3.38345 11.3734C3.5278 11.2197 3.69973 11.0985 3.88901 11.0171C4.07829 10.9357 4.28102 10.8957 4.48512 10.8995C4.68922 10.9034 4.89051 10.9509 5.07697 11.0394C5.26343 11.1279 5.43125 11.2555 5.57041 11.4145L9.81445 15.9319L16.8534 6.38128L16.8919 6.3338Z" fill="#FF22B0"/>
</svg>
