<svg width="148" height="30" viewBox="0 0 148 30" fill="none" xmlns="http://www.w3.org/2000/svg">
<path d="M16.2667 2.11728C17.0316 0.806189 18.4353 0 19.9532 0H134.607C137.893 0 139.946 3.55672 138.304 6.40202L125.911 27.8661C125.148 29.1866 123.739 30 122.214 30H7.43108C4.13702 30 2.08469 26.4266 3.74461 23.5814L16.2667 2.11728Z" fill="#1D1D39"/>
<path d="M28.4037 24.6468C23.3138 24.6468 19.5646 21.0457 19.5646 16.1351C19.5646 11.2245 23.3138 7.62345 28.4037 7.62345C33.4936 7.62345 37.2428 11.2245 37.2428 16.1351C37.2428 21.0457 33.4936 24.6468 28.4037 24.6468ZM28.4037 20.8118C30.8123 20.8118 32.6983 18.9645 32.6983 16.1351C32.6983 13.3057 30.8123 11.4584 28.4037 11.4584C25.9951 11.4584 24.1091 13.3057 24.1091 16.1351C24.1091 18.9645 25.9951 20.8118 28.4037 20.8118Z" fill="white"/>
<path d="M44.0983 11.8325V12.1131H47.0296V15.4336H44.212V24.3194H39.8946V15.4336H35.9693V12.1131H39.8946V11.7857C39.8946 8.74587 41.7352 6.75825 45.03 6.75825C46.0752 6.75825 47.1886 6.96871 47.893 7.413L46.8251 10.5464C46.4615 10.336 45.9843 10.1723 45.5299 10.1723C44.621 10.1723 44.0983 10.7101 44.0983 11.8325Z" fill="white"/>
<path d="M54.761 10.1723C53.8521 10.1723 53.3294 10.7101 53.3294 11.8325V12.1131H65.8468V15.4336H59.6449H53.4431V24.3194H49.1257V15.4336H46.6206V12.1131H49.1257V11.7857C49.1257 8.74587 50.9663 6.75825 54.2611 6.75825C55.3063 6.75825 56.4197 6.96871 57.1241 7.413L56.0562 10.5464C55.6926 10.336 55.2154 10.1723 54.761 10.1723ZM57.8513 6.96871H62.1686V24.3194H57.8513V6.96871Z" fill="white"/>
<path d="M67.1164 10.2424C65.5258 10.2424 64.4806 9.21354 64.4806 7.88067C64.4806 6.5478 65.5258 5.51892 67.1164 5.51892C68.707 5.51892 69.7523 6.47765 69.7523 7.81052C69.7523 9.21354 68.707 10.2424 67.1164 10.2424ZM64.9578 24.3194V12.1254H69.2751V24.3194H64.9578Z" fill="white"/>
<path d="M79.0368 11.8004C81.9226 11.8004 84.1267 13.142 84.1267 17.0704V24.3194H79.8094V17.7953C79.8094 15.9714 79.0368 15.1998 77.787 15.1998C76.401 15.1998 75.333 16.0883 75.333 18.1929V24.3194H71.0157V12.1254H75.1285V13.0251C76.1056 11.9728 77.4917 11.8004 79.0368 11.8004Z" fill="white"/>
<path d="M98.8931 18.0058C98.8931 18.3332 98.8476 18.7541 98.8249 19.1048H89.8721C90.2357 20.3909 91.3037 21.1392 92.8943 21.1392C94.0986 21.1392 94.8939 20.7885 95.7346 20.0402L98.0069 22.4721C96.8253 23.8283 95.0984 24.5298 92.7579 24.5298C88.3725 24.5298 85.5321 21.7472 85.5321 17.959C85.5321 14.1475 88.4179 11.435 92.3035 11.435C95.9391 11.435 98.8931 13.8201 98.8931 18.0058ZM92.3262 14.5918C90.9856 14.5918 90.0539 15.4336 89.804 16.7665H94.8484C94.6212 15.4336 93.6668 14.5918 92.3262 14.5918Z" fill="white"/>
<path d="M104.286 13.1654C105.173 12.0196 106.604 11.435 108.422 11.435V15.4336C108.036 15.3868 107.763 15.3634 107.445 15.3634C105.695 15.3634 104.491 16.2754 104.491 18.4969V24.3194H100.174V11.6454H104.286V13.1654Z" fill="white"/>
<path d="M111.844 24.5298C110.389 24.5298 109.253 23.4308 109.253 21.8875C109.253 20.2974 110.389 19.2685 111.844 19.2685C113.321 19.2685 114.434 20.2974 114.434 21.8875C114.434 23.4308 113.321 24.5298 111.844 24.5298Z" fill="white"/>
<path d="M127.621 11.435C130.961 11.435 133.665 13.937 133.665 17.959C133.665 22.0044 130.961 24.5298 127.621 24.5298C126.008 24.5298 124.804 24.0622 123.986 23.0567V24.3194H119.873V6.96871H124.19V12.7445C125.031 11.8559 126.19 11.435 127.621 11.435ZM126.712 20.9989C128.167 20.9989 129.303 19.8999 129.303 17.959C129.303 16.0416 128.167 14.9659 126.712 14.9659C125.258 14.9659 124.122 16.0416 124.122 17.959C124.122 19.8999 125.258 20.9989 126.712 20.9989Z" fill="#FF22B0"/>
<path d="M143.846 11.6454H147.959L142.642 24.8338C141.347 28.1075 139.529 29.0663 137.097 29.0663C135.802 29.0663 134.348 28.622 133.53 27.9205L135.03 24.8104C135.53 25.2781 136.257 25.5587 136.938 25.5587C137.779 25.5587 138.256 25.2313 138.62 24.4831L133.348 11.6454H137.779L140.801 19.3854L143.846 11.6454Z" fill="#FF22B0"/>
<path d="M35.9244 11.9576L66.1558 12.1416V15.453H35.9244V11.9576Z" fill="white"/>
</svg>
